<svg width="48" height="48" viewBox="0 0 48 48" fill="none" xmlns="http://www.w3.org/2000/svg">
<path d="M28.7996 4.80005L38.3996 14.4V43.2001H9.59961V4.80005H28.7996ZM28.7996 14.4H35.9996L28.7996 7.20005V14.4ZM31.1996 31.8241V19.416C31.201 19.2866 31.1762 19.1582 31.1267 19.0386C31.0772 18.919 31.0041 18.8107 30.9116 18.72C30.8324 18.6289 30.7315 18.5592 30.6183 18.5172C30.505 18.4753 30.3831 18.4625 30.2636 18.48C30.2636 18.48 20.7356 20.184 20.0636 20.352C19.3676 20.496 19.1996 21.12 19.1996 21.6V29.688C18.7196 29.472 18.1916 29.5201 17.7596 29.5201C16.8476 29.5201 16.0796 29.832 15.4556 30.456C14.8316 31.104 14.4956 31.848 14.4956 32.76C14.4956 33.648 14.8316 34.4161 15.4556 35.0401C16.0796 35.6881 16.8476 36 17.7596 36C18.5756 36 19.4396 35.904 20.0636 35.376C20.6876 34.824 21.5996 33.816 21.5996 32.688V24.7201L28.7996 23.28V28.8C27.1916 28.32 25.9916 28.8961 25.3436 29.5441C24.7196 30.1681 24.4076 30.9361 24.4076 31.8241C24.4076 32.736 24.7196 33.4801 25.3436 34.128C25.9916 34.7521 27.0476 35.064 27.9356 35.064C28.8476 35.064 29.6156 34.7521 30.2396 34.128C30.8636 33.4801 31.1996 32.736 31.1996 31.8241Z" fill="#333333"/>
</svg>
