<svg width="48" height="48" viewBox="0 0 48 48" fill="none" xmlns="http://www.w3.org/2000/svg">
<path d="M42 7.2V40.8C42 41.1183 41.8736 41.4235 41.6485 41.6485C41.4235 41.8736 41.1183 42 40.8 42H7.2C6.88174 42 6.57652 41.8736 6.35147 41.6485C6.12643 41.4235 6 41.1183 6 40.8V7.2C6 6.88174 6.12643 6.57652 6.35147 6.35147C6.57652 6.12643 6.88174 6 7.2 6H40.8C41.1183 6 41.4235 6.12643 41.6485 6.35147C41.8736 6.57652 42 6.88174 42 7.2Z" stroke="#333333" stroke-width="1.5" stroke-linecap="round" stroke-linejoin="round"/>
<path d="M6 32L20 26L42 36M32 20C30.9391 20 29.9217 19.5786 29.1716 18.8284C28.4214 18.0783 28 17.0609 28 16C28 14.9391 28.4214 13.9217 29.1716 13.1716C29.9217 12.4214 30.9391 12 32 12C33.0609 12 34.0783 12.4214 34.8284 13.1716C35.5786 13.9217 36 14.9391 36 16C36 17.0609 35.5786 18.0783 34.8284 18.8284C34.0783 19.5786 33.0609 20 32 20Z" stroke="#333333" stroke-width="1.5" stroke-linecap="round" stroke-linejoin="round"/>
</svg>
