<svg width="105" height="10" viewBox="0 0 105 10" fill="none" xmlns="http://www.w3.org/2000/svg">
<path d="M0.525 7.415C0.525 7.325 0.541667 7.24 0.575 7.16C0.608333 7.08 0.653333 7.01 0.71 6.95C0.77 6.89 0.84 6.84333 0.92 6.81C1 6.77333 1.08667 6.755 1.18 6.755C1.27 6.755 1.355 6.77333 1.435 6.81C1.515 6.84333 1.585 6.89 1.645 6.95C1.705 7.01 1.75167 7.08 1.785 7.16C1.82167 7.24 1.84 7.325 1.84 7.415C1.84 7.50833 1.82167 7.595 1.785 7.675C1.75167 7.755 1.705 7.825 1.645 7.885C1.585 7.945 1.515 7.99167 1.435 8.025C1.355 8.05833 1.27 8.075 1.18 8.075C1.08667 8.075 1 8.05833 0.92 8.025C0.84 7.99167 0.77 7.945 0.71 7.885C0.653333 7.825 0.608333 7.755 0.575 7.675C0.541667 7.595 0.525 7.50833 0.525 7.415ZM4.02328 6.75C4.18328 6.96 4.35495 7.10667 4.53828 7.19C4.72495 7.27333 4.93328 7.315 5.16328 7.315C5.60995 7.315 5.95495 7.155 6.19828 6.835C6.44495 6.51167 6.56828 6.04167 6.56828 5.425C6.56828 5.10167 6.53995 4.82667 6.48328 4.6C6.42995 4.37 6.34995 4.18333 6.24328 4.04C6.13995 3.89333 6.01161 3.78667 5.85828 3.72C5.70495 3.65 5.53161 3.615 5.33828 3.615C5.05495 3.615 4.80828 3.67833 4.59828 3.805C4.39161 3.93167 4.19995 4.11167 4.02328 4.345V6.75ZM3.97328 3.68C4.07995 3.55333 4.19328 3.43833 4.31328 3.335C4.43661 3.22833 4.56828 3.13833 4.70828 3.065C4.84828 2.98833 4.99661 2.93 5.15328 2.89C5.31328 2.84667 5.48328 2.825 5.66328 2.825C5.95328 2.825 6.21495 2.88167 6.44828 2.995C6.68495 3.10833 6.88661 3.275 7.05328 3.495C7.21995 3.715 7.34828 3.98667 7.43828 4.31C7.53162 4.63333 7.57828 5.005 7.57828 5.425C7.57828 5.80167 7.52662 6.15167 7.42328 6.475C7.32328 6.795 7.17828 7.07333 6.98828 7.31C6.80161 7.54667 6.57161 7.73333 6.29828 7.87C6.02828 8.00333 5.72328 8.07 5.38328 8.07C5.07995 8.07 4.81995 8.02 4.60328 7.92C4.38661 7.82 4.19328 7.68 4.02328 7.5V9.705H3.04828V2.92H3.63328C3.76995 2.92 3.85495 2.985 3.88828 3.115L3.97328 3.68ZM9.58828 3.625C9.69828 3.50833 9.81328 3.40167 9.93328 3.305C10.0533 3.20833 10.1799 3.12667 10.3133 3.06C10.4499 2.99 10.5949 2.93667 10.7483 2.9C10.9049 2.86 11.0716 2.84 11.2483 2.84C11.5283 2.84 11.7733 2.88667 11.9833 2.98C12.1966 3.07333 12.3749 3.205 12.5183 3.375C12.6616 3.54167 12.7699 3.74333 12.8433 3.98C12.9166 4.21667 12.9533 4.47833 12.9533 4.765V8H11.9733V4.765C11.9733 4.40167 11.8899 4.12 11.7233 3.92C11.5566 3.71667 11.3016 3.615 10.9583 3.615C10.7083 3.615 10.4733 3.675 10.2533 3.795C10.0366 3.91167 9.83495 4.07167 9.64828 4.275V8H8.67328V2.92H9.25828C9.39495 2.92 9.47995 2.985 9.51328 3.115L9.58828 3.625ZM16.054 5.465C16.2273 5.465 16.379 5.44167 16.509 5.395C16.6423 5.34833 16.7523 5.28333 16.839 5.2C16.929 5.11333 16.9957 5.01 17.039 4.89C17.0857 4.77 17.109 4.63833 17.109 4.495C17.109 4.20167 17.019 3.96833 16.839 3.795C16.6623 3.61833 16.4007 3.53 16.054 3.53C15.7107 3.53 15.449 3.61833 15.269 3.795C15.0923 3.96833 15.004 4.20167 15.004 4.495C15.004 4.63833 15.0257 4.77 15.069 4.89C15.1157 5.00667 15.1823 5.10833 15.269 5.195C15.359 5.27833 15.469 5.345 15.599 5.395C15.7323 5.44167 15.884 5.465 16.054 5.465ZM17.609 8.265C17.609 8.145 17.5757 8.05 17.509 7.98C17.4423 7.90667 17.3507 7.85 17.234 7.81C17.1207 7.76667 16.9873 7.73667 16.834 7.72C16.6807 7.7 16.519 7.685 16.349 7.675C16.1823 7.665 16.0107 7.65667 15.834 7.65C15.6573 7.64 15.4873 7.62333 15.324 7.6C15.1507 7.68667 15.0073 7.79167 14.894 7.915C14.784 8.03833 14.729 8.18333 14.729 8.35C14.729 8.45667 14.7557 8.55667 14.809 8.65C14.8657 8.74333 14.9507 8.82333 15.064 8.89C15.1807 8.96 15.3257 9.01333 15.499 9.05C15.6757 9.09 15.8857 9.11 16.129 9.11C16.369 9.11 16.5807 9.08833 16.764 9.045C16.9473 9.005 17.1007 8.94667 17.224 8.87C17.3507 8.79667 17.4457 8.70833 17.509 8.605C17.5757 8.50167 17.609 8.38833 17.609 8.265ZM18.599 3.11V3.475C18.599 3.595 18.524 3.67 18.374 3.7L17.829 3.78C17.8757 3.88333 17.9123 3.99333 17.939 4.11C17.9657 4.22333 17.979 4.34333 17.979 4.47C17.979 4.72 17.9307 4.94667 17.834 5.15C17.7373 5.35 17.604 5.52167 17.434 5.665C17.264 5.80833 17.0607 5.91833 16.824 5.995C16.5907 6.07167 16.334 6.11 16.054 6.11C15.824 6.11 15.609 6.085 15.409 6.035C15.309 6.095 15.2323 6.16167 15.179 6.235C15.129 6.305 15.104 6.375 15.104 6.445C15.104 6.56167 15.1523 6.64833 15.249 6.705C15.349 6.76167 15.4773 6.80333 15.634 6.83C15.794 6.85333 15.9757 6.86833 16.179 6.875C16.3857 6.88167 16.594 6.89333 16.804 6.91C17.0173 6.92333 17.2257 6.95 17.429 6.99C17.6357 7.02667 17.8173 7.08833 17.974 7.175C18.134 7.25833 18.2623 7.375 18.359 7.525C18.459 7.67167 18.509 7.86333 18.509 8.1C18.509 8.32 18.454 8.53333 18.344 8.74C18.2373 8.94667 18.0807 9.13 17.874 9.29C17.6673 9.45 17.4157 9.57833 17.119 9.675C16.8223 9.77167 16.4857 9.82 16.109 9.82C15.7323 9.82 15.404 9.78333 15.124 9.71C14.8473 9.63667 14.6157 9.53833 14.429 9.415C14.2457 9.29167 14.1073 9.14833 14.014 8.985C13.924 8.82167 13.879 8.65167 13.879 8.475C13.879 8.22833 13.9557 8.02 14.109 7.85C14.2623 7.67667 14.474 7.54167 14.744 7.445C14.5973 7.37833 14.4807 7.28833 14.394 7.175C14.3073 7.05833 14.264 6.905 14.264 6.715C14.264 6.64167 14.2773 6.56667 14.304 6.49C14.3307 6.41 14.3707 6.33167 14.424 6.255C14.4807 6.175 14.549 6.1 14.629 6.03C14.7123 5.96 14.8073 5.89667 14.914 5.84C14.664 5.7 14.4673 5.515 14.324 5.285C14.1807 5.05167 14.109 4.78 14.109 4.47C14.109 4.22 14.1573 3.995 14.254 3.795C14.3507 3.595 14.484 3.42333 14.654 3.28C14.8273 3.13667 15.0323 3.02667 15.269 2.95C15.509 2.87333 15.7707 2.835 16.054 2.835C16.494 2.835 16.8723 2.92667 17.189 3.11H18.599ZM19.9336 8C19.8436 8 19.7603 7.98333 19.6836 7.95C19.6103 7.91667 19.5453 7.87167 19.4886 7.815C19.4353 7.755 19.3936 7.685 19.3636 7.605C19.3336 7.525 19.3186 7.43833 19.3186 7.345C19.3186 7.265 19.3336 7.19 19.3636 7.12C19.3936 7.04667 19.4353 6.98333 19.4886 6.93C19.5453 6.87667 19.6119 6.835 19.6886 6.805C19.7653 6.77167 19.8503 6.755 19.9436 6.755C20.0503 6.755 20.1436 6.775 20.2236 6.815C20.3069 6.85167 20.3753 6.905 20.4286 6.975C20.4853 7.04167 20.5269 7.12 20.5536 7.21C20.5803 7.3 20.5936 7.39667 20.5936 7.5C20.5936 7.65 20.5719 7.80833 20.5286 7.975C20.4853 8.14167 20.4219 8.30667 20.3386 8.47C20.2553 8.63333 20.1519 8.79167 20.0286 8.945C19.9053 9.09833 19.7653 9.24 19.6086 9.37L19.4436 9.215C19.3936 9.16833 19.3686 9.11667 19.3686 9.06C19.3686 9.03667 19.3753 9.01167 19.3886 8.985C19.4053 8.96167 19.4253 8.93833 19.4486 8.915C19.4819 8.87833 19.5253 8.83 19.5786 8.77C19.6319 8.71 19.6836 8.64 19.7336 8.56C19.7869 8.48333 19.8353 8.39667 19.8786 8.3C19.9253 8.20667 19.9586 8.10667 19.9786 8H19.9336ZM24.148 7.415C24.148 7.325 24.1647 7.24 24.198 7.16C24.2314 7.08 24.2764 7.01 24.333 6.95C24.393 6.89 24.463 6.84333 24.543 6.81C24.623 6.77333 24.7097 6.755 24.803 6.755C24.893 6.755 24.978 6.77333 25.058 6.81C25.138 6.84333 25.208 6.89 25.268 6.95C25.328 7.01 25.3747 7.08 25.408 7.16C25.4447 7.24 25.463 7.325 25.463 7.415C25.463 7.50833 25.4447 7.595 25.408 7.675C25.3747 7.755 25.328 7.825 25.268 7.885C25.208 7.945 25.138 7.99167 25.058 8.025C24.978 8.05833 24.893 8.075 24.803 8.075C24.7097 8.075 24.623 8.05833 24.543 8.025C24.463 7.99167 24.393 7.945 24.333 7.885C24.2764 7.825 24.2314 7.755 24.198 7.675C24.1647 7.595 24.148 7.50833 24.148 7.415ZM28.4563 5.465C28.6297 5.465 28.7813 5.44167 28.9113 5.395C29.0447 5.34833 29.1547 5.28333 29.2413 5.2C29.3313 5.11333 29.398 5.01 29.4413 4.89C29.488 4.77 29.5113 4.63833 29.5113 4.495C29.5113 4.20167 29.4213 3.96833 29.2413 3.795C29.0647 3.61833 28.803 3.53 28.4563 3.53C28.113 3.53 27.8513 3.61833 27.6713 3.795C27.4947 3.96833 27.4063 4.20167 27.4063 4.495C27.4063 4.63833 27.428 4.77 27.4713 4.89C27.518 5.00667 27.5847 5.10833 27.6713 5.195C27.7613 5.27833 27.8713 5.345 28.0013 5.395C28.1347 5.44167 28.2863 5.465 28.4563 5.465ZM30.0113 8.265C30.0113 8.145 29.978 8.05 29.9113 7.98C29.8447 7.90667 29.753 7.85 29.6363 7.81C29.523 7.76667 29.3897 7.73667 29.2363 7.72C29.083 7.7 28.9213 7.685 28.7513 7.675C28.5847 7.665 28.413 7.65667 28.2363 7.65C28.0597 7.64 27.8897 7.62333 27.7263 7.6C27.553 7.68667 27.4097 7.79167 27.2963 7.915C27.1863 8.03833 27.1313 8.18333 27.1313 8.35C27.1313 8.45667 27.158 8.55667 27.2113 8.65C27.268 8.74333 27.353 8.82333 27.4663 8.89C27.583 8.96 27.728 9.01333 27.9013 9.05C28.078 9.09 28.288 9.11 28.5313 9.11C28.7713 9.11 28.983 9.08833 29.1663 9.045C29.3497 9.005 29.503 8.94667 29.6263 8.87C29.753 8.79667 29.848 8.70833 29.9113 8.605C29.978 8.50167 30.0113 8.38833 30.0113 8.265ZM31.0013 3.11V3.475C31.0013 3.595 30.9263 3.67 30.7763 3.7L30.2313 3.78C30.278 3.88333 30.3147 3.99333 30.3413 4.11C30.368 4.22333 30.3813 4.34333 30.3813 4.47C30.3813 4.72 30.333 4.94667 30.2363 5.15C30.1397 5.35 30.0063 5.52167 29.8363 5.665C29.6663 5.80833 29.463 5.91833 29.2263 5.995C28.993 6.07167 28.7363 6.11 28.4563 6.11C28.2263 6.11 28.0113 6.085 27.8113 6.035C27.7113 6.095 27.6347 6.16167 27.5813 6.235C27.5313 6.305 27.5063 6.375 27.5063 6.445C27.5063 6.56167 27.5547 6.64833 27.6513 6.705C27.7513 6.76167 27.8797 6.80333 28.0363 6.83C28.1963 6.85333 28.378 6.86833 28.5813 6.875C28.788 6.88167 28.9963 6.89333 29.2063 6.91C29.4197 6.92333 29.628 6.95 29.8313 6.99C30.038 7.02667 30.2197 7.08833 30.3763 7.175C30.5363 7.25833 30.6647 7.375 30.7613 7.525C30.8613 7.67167 30.9113 7.86333 30.9113 8.1C30.9113 8.32 30.8563 8.53333 30.7463 8.74C30.6397 8.94667 30.483 9.13 30.2763 9.29C30.0697 9.45 29.818 9.57833 29.5213 9.675C29.2247 9.77167 28.888 9.82 28.5113 9.82C28.1347 9.82 27.8063 9.78333 27.5263 9.71C27.2497 9.63667 27.018 9.53833 26.8313 9.415C26.648 9.29167 26.5097 9.14833 26.4163 8.985C26.3263 8.82167 26.2813 8.65167 26.2813 8.475C26.2813 8.22833 26.358 8.02 26.5113 7.85C26.6647 7.67667 26.8763 7.54167 27.1463 7.445C26.9997 7.37833 26.883 7.28833 26.7963 7.175C26.7097 7.05833 26.6663 6.905 26.6663 6.715C26.6663 6.64167 26.6797 6.56667 26.7063 6.49C26.733 6.41 26.773 6.33167 26.8263 6.255C26.883 6.175 26.9513 6.1 27.0313 6.03C27.1147 5.96 27.2097 5.89667 27.3163 5.84C27.0663 5.7 26.8697 5.515 26.7263 5.285C26.583 5.05167 26.5113 4.78 26.5113 4.47C26.5113 4.22 26.5597 3.995 26.6563 3.795C26.753 3.595 26.8863 3.42333 27.0563 3.28C27.2297 3.13667 27.4347 3.02667 27.6713 2.95C27.9113 2.87333 28.173 2.835 28.4563 2.835C28.8963 2.835 29.2747 2.92667 29.5913 3.11H31.0013ZM32.9159 2.92V8H31.9409V2.92H32.9159ZM33.1009 1.35C33.1009 1.44 33.0826 1.52667 33.0459 1.61C33.0093 1.69 32.9593 1.76167 32.8959 1.825C32.8359 1.885 32.7643 1.93333 32.6809 1.97C32.5976 2.00333 32.5109 2.02 32.4209 2.02C32.3309 2.02 32.2459 2.00333 32.1659 1.97C32.0859 1.93333 32.0143 1.885 31.9509 1.825C31.8909 1.76167 31.8426 1.69 31.8059 1.61C31.7726 1.52667 31.7559 1.44 31.7559 1.35C31.7559 1.25667 31.7726 1.17 31.8059 1.09C31.8426 1.00667 31.8909 0.935 31.9509 0.875C32.0143 0.811666 32.0859 0.763333 32.1659 0.729999C32.2459 0.693333 32.3309 0.675 32.4209 0.675C32.5109 0.675 32.5976 0.693333 32.6809 0.729999C32.7643 0.763333 32.8359 0.811666 32.8959 0.875C32.9593 0.935 33.0093 1.00667 33.0459 1.09C33.0826 1.17 33.1009 1.25667 33.1009 1.35ZM34.6626 8V3.72L34.1326 3.655C34.0559 3.63833 33.9926 3.61167 33.9426 3.575C33.8959 3.535 33.8726 3.47833 33.8726 3.405V3H34.6626V2.54C34.6626 2.25 34.7042 1.99167 34.7876 1.765C34.8709 1.53833 34.9892 1.34667 35.1426 1.19C35.2992 1.03 35.4859 0.91 35.7026 0.83C35.9226 0.746666 36.1692 0.704999 36.4426 0.704999C36.6726 0.704999 36.8842 0.738333 37.0776 0.805L37.0576 1.295C37.0542 1.33833 37.0409 1.37167 37.0176 1.395C36.9942 1.415 36.9626 1.43 36.9226 1.44C36.8859 1.45 36.8392 1.45667 36.7826 1.46C36.7292 1.46 36.6709 1.46 36.6076 1.46C36.4576 1.46 36.3209 1.47833 36.1976 1.515C36.0742 1.55167 35.9692 1.61333 35.8826 1.7C35.7959 1.78667 35.7292 1.90167 35.6826 2.045C35.6359 2.185 35.6126 2.36 35.6126 2.57V3H37.0376V3.71H35.6426V8H34.6626ZM38.0488 8C37.9588 8 37.8755 7.98333 37.7988 7.95C37.7255 7.91667 37.6605 7.87167 37.6038 7.815C37.5505 7.755 37.5088 7.685 37.4788 7.605C37.4488 7.525 37.4338 7.43833 37.4338 7.345C37.4338 7.265 37.4488 7.19 37.4788 7.12C37.5088 7.04667 37.5505 6.98333 37.6038 6.93C37.6605 6.87667 37.7272 6.835 37.8038 6.805C37.8805 6.77167 37.9655 6.755 38.0588 6.755C38.1655 6.755 38.2588 6.775 38.3388 6.815C38.4222 6.85167 38.4905 6.905 38.5438 6.975C38.6005 7.04167 38.6422 7.12 38.6688 7.21C38.6955 7.3 38.7088 7.39667 38.7088 7.5C38.7088 7.65 38.6872 7.80833 38.6438 7.975C38.6005 8.14167 38.5372 8.30667 38.4538 8.47C38.3705 8.63333 38.2672 8.79167 38.1438 8.945C38.0205 9.09833 37.8805 9.24 37.7238 9.37L37.5588 9.215C37.5088 9.16833 37.4838 9.11667 37.4838 9.06C37.4838 9.03667 37.4905 9.01167 37.5038 8.985C37.5205 8.96167 37.5405 8.93833 37.5638 8.915C37.5972 8.87833 37.6405 8.83 37.6938 8.77C37.7472 8.71 37.7988 8.64 37.8488 8.56C37.9022 8.48333 37.9505 8.39667 37.9938 8.3C38.0405 8.20667 38.0738 8.10667 38.0938 8H38.0488ZM42.2633 7.415C42.2633 7.325 42.2799 7.24 42.3133 7.16C42.3466 7.08 42.3916 7.01 42.4483 6.95C42.5083 6.89 42.5783 6.84333 42.6583 6.81C42.7383 6.77333 42.8249 6.755 42.9183 6.755C43.0083 6.755 43.0933 6.77333 43.1733 6.81C43.2533 6.84333 43.3233 6.89 43.3833 6.95C43.4433 7.01 43.4899 7.08 43.5233 7.16C43.5599 7.24 43.5783 7.325 43.5783 7.415C43.5783 7.50833 43.5599 7.595 43.5233 7.675C43.4899 7.755 43.4433 7.825 43.3833 7.885C43.3233 7.945 43.2533 7.99167 43.1733 8.025C43.0933 8.05833 43.0083 8.075 42.9183 8.075C42.8249 8.075 42.7383 8.05833 42.6583 8.025C42.5783 7.99167 42.5083 7.945 42.4483 7.885C42.3916 7.825 42.3466 7.755 42.3133 7.675C42.2799 7.595 42.2633 7.50833 42.2633 7.415ZM45.8066 2.92V8.32C45.8066 8.53 45.7782 8.725 45.7216 8.905C45.6682 9.08833 45.5816 9.24667 45.4616 9.38C45.3449 9.51667 45.1916 9.62333 45.0016 9.7C44.8149 9.77667 44.5882 9.815 44.3216 9.815C44.2116 9.815 44.1116 9.80667 44.0216 9.79C43.9282 9.77333 43.8349 9.75 43.7416 9.72L43.7816 9.19C43.7949 9.12667 43.8249 9.09167 43.8716 9.085C43.9149 9.07833 43.9999 9.075 44.1266 9.075C44.3832 9.075 44.5649 9.01667 44.6716 8.9C44.7782 8.78333 44.8316 8.59 44.8316 8.32V2.92H45.8066ZM45.9916 1.35C45.9916 1.44 45.9732 1.52667 45.9366 1.61C45.8999 1.69 45.8499 1.76167 45.7866 1.825C45.7232 1.885 45.6499 1.93333 45.5666 1.97C45.4866 2.00333 45.3999 2.02 45.3066 2.02C45.2166 2.02 45.1316 2.00333 45.0516 1.97C44.9716 1.93333 44.8999 1.885 44.8366 1.825C44.7766 1.76167 44.7282 1.69 44.6916 1.61C44.6582 1.52667 44.6416 1.44 44.6416 1.35C44.6416 1.25667 44.6582 1.17 44.6916 1.09C44.7282 1.00667 44.7766 0.935 44.8366 0.875C44.8999 0.811666 44.9716 0.763333 45.0516 0.729999C45.1316 0.693333 45.2166 0.675 45.3066 0.675C45.3999 0.675 45.4866 0.693333 45.5666 0.729999C45.6499 0.763333 45.7232 0.811666 45.7866 0.875C45.8499 0.935 45.8999 1.00667 45.9366 1.09C45.9732 1.17 45.9916 1.25667 45.9916 1.35ZM48.1932 6.75C48.3532 6.96 48.5249 7.10667 48.7082 7.19C48.8949 7.27333 49.1032 7.315 49.3332 7.315C49.7799 7.315 50.1249 7.155 50.3682 6.835C50.6149 6.51167 50.7382 6.04167 50.7382 5.425C50.7382 5.10167 50.7099 4.82667 50.6532 4.6C50.5999 4.37 50.5199 4.18333 50.4132 4.04C50.3099 3.89333 50.1815 3.78667 50.0282 3.72C49.8749 3.65 49.7015 3.615 49.5082 3.615C49.2249 3.615 48.9782 3.67833 48.7682 3.805C48.5615 3.93167 48.3699 4.11167 48.1932 4.345V6.75ZM48.1432 3.68C48.2499 3.55333 48.3632 3.43833 48.4832 3.335C48.6065 3.22833 48.7382 3.13833 48.8782 3.065C49.0182 2.98833 49.1665 2.93 49.3232 2.89C49.4832 2.84667 49.6532 2.825 49.8332 2.825C50.1232 2.825 50.3849 2.88167 50.6182 2.995C50.8549 3.10833 51.0565 3.275 51.2232 3.495C51.3899 3.715 51.5182 3.98667 51.6082 4.31C51.7015 4.63333 51.7482 5.005 51.7482 5.425C51.7482 5.80167 51.6965 6.15167 51.5932 6.475C51.4932 6.795 51.3482 7.07333 51.1582 7.31C50.9715 7.54667 50.7415 7.73333 50.4682 7.87C50.1982 8.00333 49.8932 8.07 49.5532 8.07C49.2499 8.07 48.9899 8.02 48.7732 7.92C48.5565 7.82 48.3632 7.68 48.1932 7.5V9.705H47.2182V2.92H47.8032C47.9399 2.92 48.0249 2.985 48.0582 3.115L48.1432 3.68ZM54.6282 5.465C54.8015 5.465 54.9532 5.44167 55.0832 5.395C55.2165 5.34833 55.3265 5.28333 55.4132 5.2C55.5032 5.11333 55.5699 5.01 55.6132 4.89C55.6599 4.77 55.6832 4.63833 55.6832 4.495C55.6832 4.20167 55.5932 3.96833 55.4132 3.795C55.2365 3.61833 54.9749 3.53 54.6282 3.53C54.2849 3.53 54.0232 3.61833 53.8432 3.795C53.6665 3.96833 53.5782 4.20167 53.5782 4.495C53.5782 4.63833 53.5999 4.77 53.6432 4.89C53.6899 5.00667 53.7565 5.10833 53.8432 5.195C53.9332 5.27833 54.0432 5.345 54.1732 5.395C54.3065 5.44167 54.4582 5.465 54.6282 5.465ZM56.1832 8.265C56.1832 8.145 56.1499 8.05 56.0832 7.98C56.0165 7.90667 55.9249 7.85 55.8082 7.81C55.6949 7.76667 55.5615 7.73667 55.4082 7.72C55.2549 7.7 55.0932 7.685 54.9232 7.675C54.7565 7.665 54.5849 7.65667 54.4082 7.65C54.2315 7.64 54.0615 7.62333 53.8982 7.6C53.7249 7.68667 53.5815 7.79167 53.4682 7.915C53.3582 8.03833 53.3032 8.18333 53.3032 8.35C53.3032 8.45667 53.3299 8.55667 53.3832 8.65C53.4399 8.74333 53.5249 8.82333 53.6382 8.89C53.7549 8.96 53.8999 9.01333 54.0732 9.05C54.2499 9.09 54.4599 9.11 54.7032 9.11C54.9432 9.11 55.1549 9.08833 55.3382 9.045C55.5215 9.005 55.6749 8.94667 55.7982 8.87C55.9249 8.79667 56.0199 8.70833 56.0832 8.605C56.1499 8.50167 56.1832 8.38833 56.1832 8.265ZM57.1732 3.11V3.475C57.1732 3.595 57.0982 3.67 56.9482 3.7L56.4032 3.78C56.4499 3.88333 56.4865 3.99333 56.5132 4.11C56.5399 4.22333 56.5532 4.34333 56.5532 4.47C56.5532 4.72 56.5049 4.94667 56.4082 5.15C56.3115 5.35 56.1782 5.52167 56.0082 5.665C55.8382 5.80833 55.6349 5.91833 55.3982 5.995C55.1649 6.07167 54.9082 6.11 54.6282 6.11C54.3982 6.11 54.1832 6.085 53.9832 6.035C53.8832 6.095 53.8065 6.16167 53.7532 6.235C53.7032 6.305 53.6782 6.375 53.6782 6.445C53.6782 6.56167 53.7265 6.64833 53.8232 6.705C53.9232 6.76167 54.0515 6.80333 54.2082 6.83C54.3682 6.85333 54.5499 6.86833 54.7532 6.875C54.9599 6.88167 55.1682 6.89333 55.3782 6.91C55.5915 6.92333 55.7999 6.95 56.0032 6.99C56.2099 7.02667 56.3915 7.08833 56.5482 7.175C56.7082 7.25833 56.8365 7.375 56.9332 7.525C57.0332 7.67167 57.0832 7.86333 57.0832 8.1C57.0832 8.32 57.0282 8.53333 56.9182 8.74C56.8115 8.94667 56.6549 9.13 56.4482 9.29C56.2415 9.45 55.9899 9.57833 55.6932 9.675C55.3965 9.77167 55.0599 9.82 54.6832 9.82C54.3065 9.82 53.9782 9.78333 53.6982 9.71C53.4215 9.63667 53.1899 9.53833 53.0032 9.415C52.8199 9.29167 52.6815 9.14833 52.5882 8.985C52.4982 8.82167 52.4532 8.65167 52.4532 8.475C52.4532 8.22833 52.5299 8.02 52.6832 7.85C52.8365 7.67667 53.0482 7.54167 53.3182 7.445C53.1715 7.37833 53.0549 7.28833 52.9682 7.175C52.8815 7.05833 52.8382 6.905 52.8382 6.715C52.8382 6.64167 52.8515 6.56667 52.8782 6.49C52.9049 6.41 52.9449 6.33167 52.9982 6.255C53.0549 6.175 53.1232 6.1 53.2032 6.03C53.2865 5.96 53.3815 5.89667 53.4882 5.84C53.2382 5.7 53.0415 5.515 52.8982 5.285C52.7549 5.05167 52.6832 4.78 52.6832 4.47C52.6832 4.22 52.7315 3.995 52.8282 3.795C52.9249 3.595 53.0582 3.42333 53.2282 3.28C53.4015 3.13667 53.6065 3.02667 53.8432 2.95C54.0832 2.87333 54.3449 2.835 54.6282 2.835C55.0682 2.835 55.4465 2.92667 55.7632 3.11H57.1732ZM58.5078 8C58.4178 8 58.3345 7.98333 58.2578 7.95C58.1845 7.91667 58.1195 7.87167 58.0628 7.815C58.0095 7.755 57.9678 7.685 57.9378 7.605C57.9078 7.525 57.8928 7.43833 57.8928 7.345C57.8928 7.265 57.9078 7.19 57.9378 7.12C57.9678 7.04667 58.0095 6.98333 58.0628 6.93C58.1195 6.87667 58.1861 6.835 58.2628 6.805C58.3395 6.77167 58.4245 6.755 58.5178 6.755C58.6245 6.755 58.7178 6.775 58.7978 6.815C58.8811 6.85167 58.9495 6.905 59.0028 6.975C59.0595 7.04167 59.1011 7.12 59.1278 7.21C59.1545 7.3 59.1678 7.39667 59.1678 7.5C59.1678 7.65 59.1461 7.80833 59.1028 7.975C59.0595 8.14167 58.9961 8.30667 58.9128 8.47C58.8295 8.63333 58.7261 8.79167 58.6028 8.945C58.4795 9.09833 58.3395 9.24 58.1828 9.37L58.0178 9.215C57.9678 9.16833 57.9428 9.11667 57.9428 9.06C57.9428 9.03667 57.9495 9.01167 57.9628 8.985C57.9795 8.96167 57.9995 8.93833 58.0228 8.915C58.0561 8.87833 58.0995 8.83 58.1528 8.77C58.2061 8.71 58.2578 8.64 58.3078 8.56C58.3611 8.48333 58.4095 8.39667 58.4528 8.3C58.4995 8.20667 58.5328 8.10667 58.5528 8H58.5078ZM62.7223 7.415C62.7223 7.325 62.7389 7.24 62.7723 7.16C62.8056 7.08 62.8506 7.01 62.9073 6.95C62.9673 6.89 63.0373 6.84333 63.1173 6.81C63.1973 6.77333 63.2839 6.755 63.3773 6.755C63.4673 6.755 63.5523 6.77333 63.6323 6.81C63.7123 6.84333 63.7823 6.89 63.8423 6.95C63.9023 7.01 63.9489 7.08 63.9823 7.16C64.0189 7.24 64.0373 7.325 64.0373 7.415C64.0373 7.50833 64.0189 7.595 63.9823 7.675C63.9489 7.755 63.9023 7.825 63.8423 7.885C63.7823 7.945 63.7123 7.99167 63.6323 8.025C63.5523 8.05833 63.4673 8.075 63.3773 8.075C63.2839 8.075 63.1973 8.05833 63.1173 8.025C63.0373 7.99167 62.9673 7.945 62.9073 7.885C62.8506 7.825 62.8056 7.755 62.7723 7.675C62.7389 7.595 62.7223 7.50833 62.7223 7.415ZM66.2655 2.92V8.32C66.2655 8.53 66.2372 8.725 66.1805 8.905C66.1272 9.08833 66.0405 9.24667 65.9205 9.38C65.8039 9.51667 65.6505 9.62333 65.4605 9.7C65.2739 9.77667 65.0472 9.815 64.7805 9.815C64.6705 9.815 64.5705 9.80667 64.4805 9.79C64.3872 9.77333 64.2939 9.75 64.2005 9.72L64.2405 9.19C64.2539 9.12667 64.2839 9.09167 64.3305 9.085C64.3739 9.07833 64.4589 9.075 64.5855 9.075C64.8422 9.075 65.0239 9.01667 65.1305 8.9C65.2372 8.78333 65.2905 8.59 65.2905 8.32V2.92H66.2655ZM66.4505 1.35C66.4505 1.44 66.4322 1.52667 66.3955 1.61C66.3589 1.69 66.3089 1.76167 66.2455 1.825C66.1822 1.885 66.1089 1.93333 66.0255 1.97C65.9455 2.00333 65.8589 2.02 65.7655 2.02C65.6755 2.02 65.5905 2.00333 65.5105 1.97C65.4305 1.93333 65.3589 1.885 65.2955 1.825C65.2355 1.76167 65.1872 1.69 65.1505 1.61C65.1172 1.52667 65.1005 1.44 65.1005 1.35C65.1005 1.25667 65.1172 1.17 65.1505 1.09C65.1872 1.00667 65.2355 0.935 65.2955 0.875C65.3589 0.811666 65.4305 0.763333 65.5105 0.729999C65.5905 0.693333 65.6755 0.675 65.7655 0.675C65.8589 0.675 65.9455 0.693333 66.0255 0.729999C66.1089 0.763333 66.1822 0.811666 66.2455 0.875C66.3089 0.935 66.3589 1.00667 66.3955 1.09C66.4322 1.17 66.4505 1.25667 66.4505 1.35ZM68.6522 6.75C68.8122 6.96 68.9839 7.10667 69.1672 7.19C69.3539 7.27333 69.5622 7.315 69.7922 7.315C70.2389 7.315 70.5839 7.155 70.8272 6.835C71.0739 6.51167 71.1972 6.04167 71.1972 5.425C71.1972 5.10167 71.1689 4.82667 71.1122 4.6C71.0589 4.37 70.9789 4.18333 70.8722 4.04C70.7689 3.89333 70.6405 3.78667 70.4872 3.72C70.3339 3.65 70.1605 3.615 69.9672 3.615C69.6839 3.615 69.4372 3.67833 69.2272 3.805C69.0205 3.93167 68.8289 4.11167 68.6522 4.345V6.75ZM68.6022 3.68C68.7089 3.55333 68.8222 3.43833 68.9422 3.335C69.0655 3.22833 69.1972 3.13833 69.3372 3.065C69.4772 2.98833 69.6255 2.93 69.7822 2.89C69.9422 2.84667 70.1122 2.825 70.2922 2.825C70.5822 2.825 70.8439 2.88167 71.0772 2.995C71.3139 3.10833 71.5155 3.275 71.6822 3.495C71.8489 3.715 71.9772 3.98667 72.0672 4.31C72.1605 4.63333 72.2072 5.005 72.2072 5.425C72.2072 5.80167 72.1555 6.15167 72.0522 6.475C71.9522 6.795 71.8072 7.07333 71.6172 7.31C71.4305 7.54667 71.2005 7.73333 70.9272 7.87C70.6572 8.00333 70.3522 8.07 70.0122 8.07C69.7089 8.07 69.4489 8.02 69.2322 7.92C69.0155 7.82 68.8222 7.68 68.6522 7.5V9.705H67.6772V2.92H68.2622C68.3989 2.92 68.4839 2.985 68.5172 3.115L68.6022 3.68ZM76.6672 4.895C76.6672 4.70167 76.6389 4.52333 76.5822 4.36C76.5289 4.19667 76.4489 4.055 76.3422 3.935C76.2355 3.815 76.1055 3.72167 75.9522 3.655C75.7989 3.58833 75.6222 3.555 75.4222 3.555C75.0122 3.555 74.6889 3.67333 74.4522 3.91C74.2189 4.14667 74.0705 4.475 74.0072 4.895H76.6672ZM77.4722 7.275C77.3522 7.415 77.2139 7.53667 77.0572 7.64C76.9005 7.74 76.7339 7.82167 76.5572 7.885C76.3805 7.94833 76.1972 7.995 76.0072 8.025C75.8205 8.055 75.6355 8.07 75.4522 8.07C75.1022 8.07 74.7772 8.01167 74.4772 7.895C74.1805 7.775 73.9222 7.60167 73.7022 7.375C73.4855 7.145 73.3155 6.86167 73.1922 6.525C73.0722 6.185 73.0122 5.795 73.0122 5.355C73.0122 5.00167 73.0672 4.67333 73.1772 4.37C73.2872 4.06333 73.4439 3.79667 73.6472 3.57C73.8539 3.34333 74.1055 3.165 74.4022 3.035C74.6989 2.905 75.0322 2.84 75.4022 2.84C75.7122 2.84 75.9972 2.89167 76.2572 2.995C76.5205 3.095 76.7472 3.24167 76.9372 3.435C77.1272 3.62833 77.2755 3.86667 77.3822 4.15C77.4922 4.43333 77.5472 4.75667 77.5472 5.12C77.5472 5.27 77.5305 5.37167 77.4972 5.425C77.4639 5.475 77.4022 5.5 77.3122 5.5H73.9822C73.9922 5.80333 74.0355 6.06833 74.1122 6.295C74.1889 6.51833 74.2939 6.705 74.4272 6.855C74.5639 7.005 74.7255 7.11667 74.9122 7.19C75.0989 7.26333 75.3072 7.3 75.5372 7.3C75.7539 7.3 75.9405 7.275 76.0972 7.225C76.2572 7.175 76.3939 7.12167 76.5072 7.065C76.6239 7.005 76.7205 6.95 76.7972 6.9C76.8772 6.85 76.9472 6.825 77.0072 6.825C77.0872 6.825 77.1489 6.855 77.1922 6.915L77.4722 7.275ZM80.3802 5.465C80.5535 5.465 80.7052 5.44167 80.8352 5.395C80.9685 5.34833 81.0785 5.28333 81.1652 5.2C81.2552 5.11333 81.3218 5.01 81.3652 4.89C81.4118 4.77 81.4352 4.63833 81.4352 4.495C81.4352 4.20167 81.3452 3.96833 81.1652 3.795C80.9885 3.61833 80.7268 3.53 80.3802 3.53C80.0368 3.53 79.7752 3.61833 79.5952 3.795C79.4185 3.96833 79.3302 4.20167 79.3302 4.495C79.3302 4.63833 79.3518 4.77 79.3952 4.89C79.4418 5.00667 79.5085 5.10833 79.5952 5.195C79.6852 5.27833 79.7952 5.345 79.9252 5.395C80.0585 5.44167 80.2102 5.465 80.3802 5.465ZM81.9352 8.265C81.9352 8.145 81.9018 8.05 81.8352 7.98C81.7685 7.90667 81.6768 7.85 81.5602 7.81C81.4468 7.76667 81.3135 7.73667 81.1602 7.72C81.0068 7.7 80.8452 7.685 80.6752 7.675C80.5085 7.665 80.3368 7.65667 80.1602 7.65C79.9835 7.64 79.8135 7.62333 79.6502 7.6C79.4768 7.68667 79.3335 7.79167 79.2202 7.915C79.1102 8.03833 79.0552 8.18333 79.0552 8.35C79.0552 8.45667 79.0818 8.55667 79.1352 8.65C79.1918 8.74333 79.2768 8.82333 79.3902 8.89C79.5068 8.96 79.6518 9.01333 79.8252 9.05C80.0018 9.09 80.2118 9.11 80.4552 9.11C80.6952 9.11 80.9068 9.08833 81.0902 9.045C81.2735 9.005 81.4268 8.94667 81.5502 8.87C81.6768 8.79667 81.7718 8.70833 81.8352 8.605C81.9018 8.50167 81.9352 8.38833 81.9352 8.265ZM82.9252 3.11V3.475C82.9252 3.595 82.8502 3.67 82.7002 3.7L82.1552 3.78C82.2018 3.88333 82.2385 3.99333 82.2652 4.11C82.2918 4.22333 82.3052 4.34333 82.3052 4.47C82.3052 4.72 82.2568 4.94667 82.1602 5.15C82.0635 5.35 81.9302 5.52167 81.7602 5.665C81.5902 5.80833 81.3868 5.91833 81.1502 5.995C80.9168 6.07167 80.6602 6.11 80.3802 6.11C80.1502 6.11 79.9352 6.085 79.7352 6.035C79.6352 6.095 79.5585 6.16167 79.5052 6.235C79.4552 6.305 79.4302 6.375 79.4302 6.445C79.4302 6.56167 79.4785 6.64833 79.5752 6.705C79.6752 6.76167 79.8035 6.80333 79.9602 6.83C80.1202 6.85333 80.3018 6.86833 80.5052 6.875C80.7118 6.88167 80.9202 6.89333 81.1302 6.91C81.3435 6.92333 81.5518 6.95 81.7552 6.99C81.9618 7.02667 82.1435 7.08833 82.3002 7.175C82.4602 7.25833 82.5885 7.375 82.6852 7.525C82.7852 7.67167 82.8352 7.86333 82.8352 8.1C82.8352 8.32 82.7802 8.53333 82.6702 8.74C82.5635 8.94667 82.4068 9.13 82.2002 9.29C81.9935 9.45 81.7418 9.57833 81.4452 9.675C81.1485 9.77167 80.8118 9.82 80.4352 9.82C80.0585 9.82 79.7302 9.78333 79.4502 9.71C79.1735 9.63667 78.9418 9.53833 78.7552 9.415C78.5718 9.29167 78.4335 9.14833 78.3402 8.985C78.2502 8.82167 78.2052 8.65167 78.2052 8.475C78.2052 8.22833 78.2818 8.02 78.4352 7.85C78.5885 7.67667 78.8002 7.54167 79.0702 7.445C78.9235 7.37833 78.8068 7.28833 78.7202 7.175C78.6335 7.05833 78.5902 6.905 78.5902 6.715C78.5902 6.64167 78.6035 6.56667 78.6302 6.49C78.6568 6.41 78.6968 6.33167 78.7502 6.255C78.8068 6.175 78.8752 6.1 78.9552 6.03C79.0385 5.96 79.1335 5.89667 79.2402 5.84C78.9902 5.7 78.7935 5.515 78.6502 5.285C78.5068 5.05167 78.4352 4.78 78.4352 4.47C78.4352 4.22 78.4835 3.995 78.5802 3.795C78.6768 3.595 78.8102 3.42333 78.9802 3.28C79.1535 3.13667 79.3585 3.02667 79.5952 2.95C79.8352 2.87333 80.0968 2.835 80.3802 2.835C80.8202 2.835 81.1985 2.92667 81.5152 3.11H82.9252ZM88.5141 2.84C88.8874 2.84 89.2241 2.90167 89.5241 3.025C89.8274 3.145 90.0841 3.32 90.2941 3.55C90.5074 3.77667 90.6707 4.05167 90.7841 4.375C90.8974 4.695 90.9541 5.055 90.9541 5.455C90.9541 5.855 90.8974 6.21667 90.7841 6.54C90.6707 6.86333 90.5074 7.13833 90.2941 7.365C90.0841 7.59167 89.8274 7.76667 89.5241 7.89C89.2241 8.01 88.8874 8.07 88.5141 8.07C88.1374 8.07 87.7974 8.01 87.4941 7.89C87.1941 7.76667 86.9374 7.59167 86.7241 7.365C86.5107 7.13833 86.3457 6.86333 86.2291 6.54C86.1157 6.21667 86.0591 5.855 86.0591 5.455C86.0591 5.055 86.1157 4.695 86.2291 4.375C86.3457 4.05167 86.5107 3.77667 86.7241 3.55C86.9374 3.32 87.1941 3.145 87.4941 3.025C87.7974 2.90167 88.1374 2.84 88.5141 2.84ZM88.5141 7.31C88.9941 7.31 89.3524 7.14833 89.5891 6.825C89.8257 6.50167 89.9441 6.04667 89.9441 5.46C89.9441 4.87333 89.8257 4.41833 89.5891 4.095C89.3524 3.76833 88.9941 3.605 88.5141 3.605C88.0274 3.605 87.6641 3.76833 87.4241 4.095C87.1874 4.41833 87.0691 4.87333 87.0691 5.46C87.0691 6.04667 87.1874 6.50167 87.4241 6.825C87.6641 7.14833 88.0274 7.31 88.5141 7.31ZM92.9574 3.625C93.0674 3.50833 93.1824 3.40167 93.3024 3.305C93.4224 3.20833 93.5491 3.12667 93.6824 3.06C93.8191 2.99 93.9641 2.93667 94.1174 2.9C94.2741 2.86 94.4408 2.84 94.6174 2.84C94.8974 2.84 95.1424 2.88667 95.3524 2.98C95.5658 3.07333 95.7441 3.205 95.8874 3.375C96.0308 3.54167 96.1391 3.74333 96.2124 3.98C96.2858 4.21667 96.3224 4.47833 96.3224 4.765V8H95.3424V4.765C95.3424 4.40167 95.2591 4.12 95.0924 3.92C94.9258 3.71667 94.6708 3.615 94.3274 3.615C94.0774 3.615 93.8424 3.675 93.6224 3.795C93.4058 3.91167 93.2041 4.07167 93.0174 4.275V8H92.0424V2.92H92.6274C92.7641 2.92 92.8491 2.985 92.8824 3.115L92.9574 3.625ZM98.6381 0.62V8H97.6581V0.62H98.6381ZM104.471 2.92L101.651 9.475C101.621 9.54833 101.581 9.605 101.531 9.645C101.481 9.685 101.407 9.705 101.311 9.705H100.586L101.516 7.68L99.4307 2.92H100.281C100.364 2.92 100.429 2.94 100.476 2.98C100.522 3.02 100.556 3.065 100.576 3.115L101.866 6.165C101.892 6.24167 101.917 6.32 101.941 6.4C101.967 6.47667 101.989 6.55333 102.006 6.63C102.029 6.55 102.054 6.47167 102.081 6.395C102.107 6.315 102.136 6.23667 102.166 6.16L103.411 3.115C103.434 3.05833 103.471 3.01167 103.521 2.975C103.571 2.93833 103.627 2.92 103.691 2.92H104.471Z" fill="#C665C6"/>
</svg>
