<svg width="23" height="20" viewBox="0 0 23 20" fill="none" xmlns="http://www.w3.org/2000/svg">
<path d="M13.5791 0.325938C13.4529 0.264481 13.3121 0.239632 13.1726 0.254216C13.033 0.2688 12.9004 0.322231 12.7897 0.408439L6.24219 5.5H2C1.60218 5.5 1.22064 5.65804 0.93934 5.93934C0.658035 6.22065 0.5 6.60218 0.5 7V13C0.5 13.3978 0.658035 13.7794 0.93934 14.0607C1.22064 14.342 1.60218 14.5 2 14.5H6.24219L12.7897 19.5916C12.9005 19.6777 13.0332 19.731 13.1728 19.7455C13.3124 19.7599 13.4533 19.7349 13.5793 19.6733C13.7054 19.6116 13.8117 19.5159 13.8861 19.3969C13.9604 19.2778 13.9999 19.1403 14 19V1C14 0.859496 13.9606 0.721811 13.8861 0.602635C13.8117 0.483459 13.7053 0.387585 13.5791 0.325938ZM2 7H5.75V13H2V7ZM12.5 17.4663L7.25 13.3834V6.61656L12.5 2.53375V17.4663ZM17.5625 7.52125C18.1657 8.20607 18.4986 9.08738 18.4986 10C18.4986 10.9126 18.1657 11.7939 17.5625 12.4788C17.43 12.6243 17.2456 12.712 17.049 12.7228C16.8524 12.7336 16.6595 12.6667 16.5118 12.5365C16.3642 12.4063 16.2736 12.2233 16.2597 12.0269C16.2458 11.8305 16.3097 11.6366 16.4375 11.4869C16.7992 11.076 16.9988 10.5474 16.9988 10C16.9988 9.4526 16.7992 8.92397 16.4375 8.51313C16.3097 8.36343 16.2458 8.16946 16.2597 7.97308C16.2736 7.77671 16.3642 7.59368 16.5118 7.46349C16.6595 7.33329 16.8524 7.26638 17.049 7.27719C17.2456 7.28799 17.43 7.37565 17.5625 7.52125ZM22.25 10C22.2511 11.8452 21.5711 13.6259 20.3403 15.0006C20.2067 15.1452 20.0216 15.2314 19.825 15.2407C19.6284 15.2501 19.436 15.1817 19.2893 15.0504C19.1426 14.9191 19.0535 14.7354 19.041 14.539C19.0286 14.3425 19.0939 14.1491 19.2228 14.0003C20.2066 12.9003 20.7505 11.4763 20.7505 10.0005C20.7505 8.52468 20.2066 7.10065 19.2228 6.00063C19.1553 5.92756 19.103 5.84178 19.0689 5.7483C19.0349 5.65481 19.0197 5.55549 19.0245 5.4561C19.0292 5.35672 19.0536 5.25927 19.0963 5.16942C19.1391 5.07957 19.1993 4.99912 19.2734 4.93277C19.3475 4.86641 19.4341 4.81546 19.5281 4.7829C19.6222 4.75033 19.7217 4.7368 19.821 4.74308C19.9203 4.74937 20.0173 4.77535 20.1065 4.81951C20.1957 4.86367 20.2751 4.92513 20.3403 5.00031C21.5714 6.37452 22.2515 8.15502 22.25 10Z" fill="#F59A17"/>
</svg>
