<svg width="42" height="10" viewBox="0 0 42 10" fill="none" xmlns="http://www.w3.org/2000/svg">
<path d="M0.525 7.415C0.525 7.325 0.541667 7.24 0.575 7.16C0.608333 7.08 0.653333 7.01 0.71 6.95C0.77 6.89 0.84 6.84333 0.92 6.81C1 6.77333 1.08667 6.755 1.18 6.755C1.27 6.755 1.355 6.77333 1.435 6.81C1.515 6.84333 1.585 6.89 1.645 6.95C1.705 7.01 1.75167 7.08 1.785 7.16C1.82167 7.24 1.84 7.325 1.84 7.415C1.84 7.50833 1.82167 7.595 1.785 7.675C1.75167 7.755 1.705 7.825 1.645 7.885C1.585 7.945 1.515 7.99167 1.435 8.025C1.355 8.05833 1.27 8.075 1.18 8.075C1.08667 8.075 1 8.05833 0.92 8.025C0.84 7.99167 0.77 7.945 0.71 7.885C0.653333 7.825 0.608333 7.755 0.575 7.675C0.541667 7.595 0.525 7.50833 0.525 7.415ZM9.89844 2.92L8.26344 8H7.48344C7.3901 8 7.32677 7.93833 7.29344 7.815L6.22344 4.505C6.19677 4.42167 6.17344 4.34 6.15344 4.26C6.13344 4.17667 6.1151 4.09333 6.09844 4.01C6.06844 4.18333 6.02677 4.35167 5.97344 4.515L4.88844 7.815C4.8551 7.93833 4.78344 8 4.67344 8H3.93344L2.29344 2.92H3.06344C3.1401 2.92 3.20344 2.93833 3.25344 2.975C3.30677 3.01167 3.34177 3.05833 3.35844 3.115L4.27344 6.235C4.30344 6.36167 4.3301 6.485 4.35344 6.605C4.37677 6.725 4.39844 6.845 4.41844 6.965C4.44844 6.845 4.4801 6.725 4.51344 6.605C4.5501 6.485 4.58677 6.36167 4.62344 6.235L5.63844 3.095C5.6551 3.03833 5.68677 2.99333 5.73344 2.96C5.7801 2.92333 5.83677 2.905 5.90344 2.905H6.32844C6.40177 2.905 6.46177 2.92333 6.50844 2.96C6.55844 2.99333 6.59177 3.03833 6.60844 3.095L7.59844 6.235C7.6351 6.36167 7.6701 6.48667 7.70344 6.61C7.73677 6.73 7.76677 6.85167 7.79344 6.975C7.81344 6.855 7.83677 6.735 7.86344 6.615C7.8901 6.49167 7.9201 6.365 7.95344 6.235L8.88344 3.115C8.9001 3.05833 8.93344 3.01167 8.98344 2.975C9.03677 2.93833 9.09677 2.92 9.16344 2.92H9.89844ZM13.3955 5.745C12.9988 5.75833 12.6621 5.79 12.3855 5.84C12.1088 5.88667 11.8838 5.95 11.7105 6.03C11.5371 6.11 11.4121 6.205 11.3355 6.315C11.2588 6.42167 11.2205 6.54167 11.2205 6.675C11.2205 6.80167 11.2405 6.91167 11.2805 7.005C11.3238 7.095 11.3805 7.17 11.4505 7.23C11.5238 7.28667 11.6088 7.32833 11.7055 7.355C11.8021 7.38167 11.9071 7.395 12.0205 7.395C12.1705 7.395 12.3071 7.38 12.4305 7.35C12.5571 7.32 12.6755 7.27833 12.7855 7.225C12.8955 7.16833 13.0005 7.1 13.1005 7.02C13.2005 6.94 13.2988 6.84833 13.3955 6.745V5.745ZM10.5355 3.63C10.8188 3.36 11.1255 3.15833 11.4555 3.025C11.7888 2.89167 12.1538 2.825 12.5505 2.825C12.8405 2.825 13.0971 2.87333 13.3205 2.97C13.5438 3.06333 13.7321 3.195 13.8855 3.365C14.0388 3.535 14.1538 3.73833 14.2305 3.975C14.3105 4.21167 14.3505 4.47333 14.3505 4.76V8H13.9155C13.8188 8 13.7455 7.985 13.6955 7.955C13.6455 7.92167 13.6055 7.86167 13.5755 7.775L13.4705 7.33C13.3405 7.45 13.2121 7.55667 13.0855 7.65C12.9588 7.74 12.8255 7.81833 12.6855 7.885C12.5488 7.94833 12.4021 7.99667 12.2455 8.03C12.0888 8.06333 11.9155 8.08 11.7255 8.08C11.5255 8.08 11.3371 8.05333 11.1605 8C10.9871 7.94333 10.8355 7.85833 10.7055 7.745C10.5755 7.63167 10.4721 7.49 10.3955 7.32C10.3221 7.15 10.2855 6.95167 10.2855 6.725C10.2855 6.525 10.3388 6.33333 10.4455 6.15C10.5555 5.96333 10.7321 5.79667 10.9755 5.65C11.2221 5.50333 11.5421 5.38333 11.9355 5.29C12.3321 5.19667 12.8188 5.14333 13.3955 5.13V4.76C13.3955 4.37667 13.3138 4.09 13.1505 3.9C12.9871 3.71 12.7471 3.615 12.4305 3.615C12.2171 3.615 12.0371 3.64167 11.8905 3.695C11.7471 3.74833 11.6221 3.80833 11.5155 3.875C11.4121 3.93833 11.3205 3.99667 11.2405 4.05C11.1638 4.10333 11.0838 4.13 11.0005 4.13C10.9338 4.13 10.8755 4.11167 10.8255 4.075C10.7788 4.03833 10.7405 3.995 10.7105 3.945L10.5355 3.63ZM19.9583 2.92L17.8983 8H17.0183L14.9583 2.92H15.7633C15.8399 2.92 15.9033 2.93833 15.9533 2.975C16.0033 3.01167 16.0366 3.05833 16.0533 3.115L17.2683 6.235C17.3116 6.365 17.3483 6.495 17.3783 6.625C17.4116 6.75167 17.4416 6.87833 17.4683 7.005C17.4949 6.87833 17.5249 6.75167 17.5583 6.625C17.5916 6.49833 17.6316 6.36833 17.6783 6.235L18.9083 3.115C18.9283 3.05833 18.9633 3.01167 19.0133 2.975C19.0633 2.93833 19.1233 2.92 19.1933 2.92H19.9583ZM25.184 2.84C25.5573 2.84 25.894 2.90167 26.194 3.025C26.4973 3.145 26.754 3.32 26.964 3.55C27.1773 3.77667 27.3407 4.05167 27.454 4.375C27.5673 4.695 27.624 5.055 27.624 5.455C27.624 5.855 27.5673 6.21667 27.454 6.54C27.3407 6.86333 27.1773 7.13833 26.964 7.365C26.754 7.59167 26.4973 7.76667 26.194 7.89C25.894 8.01 25.5573 8.07 25.184 8.07C24.8073 8.07 24.4673 8.01 24.164 7.89C23.864 7.76667 23.6073 7.59167 23.394 7.365C23.1807 7.13833 23.0157 6.86333 22.899 6.54C22.7857 6.21667 22.729 5.855 22.729 5.455C22.729 5.055 22.7857 4.695 22.899 4.375C23.0157 4.05167 23.1807 3.77667 23.394 3.55C23.6073 3.32 23.864 3.145 24.164 3.025C24.4673 2.90167 24.8073 2.84 25.184 2.84ZM25.184 7.31C25.664 7.31 26.0223 7.14833 26.259 6.825C26.4957 6.50167 26.614 6.04667 26.614 5.46C26.614 4.87333 26.4957 4.41833 26.259 4.095C26.0223 3.76833 25.664 3.605 25.184 3.605C24.6973 3.605 24.334 3.76833 24.094 4.095C23.8573 4.41833 23.739 4.87333 23.739 5.46C23.739 6.04667 23.8573 6.50167 24.094 6.825C24.334 7.14833 24.6973 7.31 25.184 7.31ZM29.6273 3.625C29.7373 3.50833 29.8523 3.40167 29.9723 3.305C30.0923 3.20833 30.219 3.12667 30.3523 3.06C30.489 2.99 30.634 2.93667 30.7873 2.9C30.944 2.86 31.1107 2.84 31.2873 2.84C31.5673 2.84 31.8123 2.88667 32.0223 2.98C32.2357 3.07333 32.414 3.205 32.5573 3.375C32.7007 3.54167 32.809 3.74333 32.8823 3.98C32.9557 4.21667 32.9923 4.47833 32.9923 4.765V8H32.0123V4.765C32.0123 4.40167 31.929 4.12 31.7623 3.92C31.5957 3.71667 31.3407 3.615 30.9973 3.615C30.7473 3.615 30.5123 3.675 30.2923 3.795C30.0757 3.91167 29.874 4.07167 29.6873 4.275V8H28.7123V2.92H29.2973C29.434 2.92 29.519 2.985 29.5523 3.115L29.6273 3.625ZM35.308 0.62V8H34.328V0.62H35.308ZM41.1406 2.92L38.3206 9.475C38.2906 9.54833 38.2506 9.605 38.2006 9.645C38.1506 9.685 38.0773 9.705 37.9806 9.705H37.2556L38.1856 7.68L36.1006 2.92H36.9506C37.034 2.92 37.099 2.94 37.1456 2.98C37.1923 3.02 37.2256 3.065 37.2456 3.115L38.5356 6.165C38.5623 6.24167 38.5873 6.32 38.6106 6.4C38.6373 6.47667 38.659 6.55333 38.6756 6.63C38.699 6.55 38.724 6.47167 38.7506 6.395C38.7773 6.315 38.8056 6.23667 38.8356 6.16L40.0806 3.115C40.104 3.05833 40.1406 3.01167 40.1906 2.975C40.2406 2.93833 40.2973 2.92 40.3606 2.92H41.1406Z" fill="#C665C6"/>
</svg>
